# Blender v2.78 (sub 0) OBJ File: ''
# www.blender.org
mtllib semisphere.mtl
o Sphere
v 0.000000 -1.000000 0.000000
v 0.038060 0.980785 -0.191342
v 0.074658 0.923880 -0.375330
v 0.108386 0.831470 -0.544895
v 0.137950 0.707107 -0.693520
v 0.162212 0.555570 -0.815493
v 0.180240 0.382683 -0.906127
v 0.191342 0.195090 -0.961940
v 0.195090 0.000000 -0.980785
v 0.191342 -0.195090 -0.961940
v 0.180240 -0.382683 -0.906127
v 0.162212 -0.555570 -0.815493
v 0.137950 -0.707107 -0.693520
v 0.108386 -0.831470 -0.544895
v 0.074658 -0.923880 -0.375330
v 0.038060 -0.980785 -0.191341
v 0.074658 0.980785 -0.180240
v 0.146447 0.923880 -0.353553
v 0.212608 0.831470 -0.513280
v 0.270598 0.707107 -0.653281
v 0.318190 0.555570 -0.768178
v 0.353553 0.382683 -0.853553
v 0.375330 0.195090 -0.906127
v 0.382684 0.000000 -0.923879
v 0.375330 -0.195090 -0.906127
v 0.353554 -0.382683 -0.853553
v 0.318190 -0.555570 -0.768178
v 0.270598 -0.707107 -0.653281
v 0.212608 -0.831470 -0.513280
v 0.146447 -0.923880 -0.353553
v 0.074658 -0.980785 -0.180240
v 0.108387 0.980785 -0.162212
v 0.212608 0.923880 -0.318190
v 0.308658 0.831470 -0.461940
v 0.392848 0.707107 -0.587938
v 0.461940 0.555570 -0.691342
v 0.513280 0.382683 -0.768178
v 0.544895 0.195090 -0.815493
v 0.555570 0.000000 -0.831469
v 0.544895 -0.195090 -0.815493
v 0.513280 -0.382683 -0.768178
v 0.461940 -0.555570 -0.691342
v 0.392848 -0.707107 -0.587938
v 0.308658 -0.831470 -0.461940
v 0.212608 -0.923880 -0.318189
v 0.108386 -0.980785 -0.162211
v 0.137950 0.980785 -0.137950
v 0.270598 0.923880 -0.270598
v 0.392848 0.831470 -0.392847
v 0.500000 0.707107 -0.500000
v 0.587938 0.555570 -0.587938
v 0.653282 0.382683 -0.653281
v 0.693520 0.195090 -0.693520
v 0.707107 0.000000 -0.707107
v 0.693520 -0.195090 -0.693520
v 0.653282 -0.382683 -0.653281
v 0.587938 -0.555570 -0.587938
v 0.500000 -0.707107 -0.500000
v 0.392848 -0.831470 -0.392847
v 0.270598 -0.923880 -0.270598
v 0.137950 -0.980785 -0.137949
v 0.162212 0.980785 -0.108386
v 0.318190 0.923880 -0.212607
v 0.461940 0.831470 -0.308658
v 0.587938 0.707107 -0.392847
v 0.691342 0.555570 -0.461940
v 0.768178 0.382683 -0.513280
v 0.815493 0.195090 -0.544895
v 0.831470 0.000000 -0.555570
v 0.815493 -0.195090 -0.544895
v 0.768178 -0.382683 -0.513280
v 0.691342 -0.555570 -0.461940
v 0.587938 -0.707107 -0.392847
v 0.461940 -0.831470 -0.308658
v 0.318190 -0.923880 -0.212607
v 0.162212 -0.980785 -0.108386
v 0.180240 0.980785 -0.074658
v 0.353554 0.923880 -0.146446
v 0.513280 0.831470 -0.212607
v 0.653282 0.707107 -0.270598
v 0.768178 0.555570 -0.318189
v 0.853554 0.382683 -0.353553
v 0.906128 0.195090 -0.375330
v 0.923880 0.000000 -0.382683
v 0.906128 -0.195090 -0.375330
v 0.853554 -0.382683 -0.353553
v 0.768178 -0.555570 -0.318189
v 0.653282 -0.707107 -0.270598
v 0.513280 -0.831470 -0.212607
v 0.353554 -0.923880 -0.146446
v 0.180240 -0.980785 -0.074658
v 0.191342 0.980785 -0.038060
v 0.375331 0.923880 -0.074658
v 0.544895 0.831470 -0.108386
v 0.693520 0.707107 -0.137949
v 0.815493 0.555570 -0.162211
v 0.906128 0.382683 -0.180240
v 0.961940 0.195090 -0.191341
v 0.980785 0.000000 -0.195090
v 0.961940 -0.195090 -0.191341
v 0.906128 -0.382683 -0.180240
v 0.815493 -0.555570 -0.162211
v 0.693520 -0.707107 -0.137949
v 0.544895 -0.831470 -0.108386
v 0.375330 -0.923880 -0.074658
v 0.191342 -0.980785 -0.038060
v 0.195091 0.980785 0.000000
v 0.382684 0.923880 0.000000
v 0.555570 0.831470 0.000000
v 0.707107 0.707107 0.000000
v 0.831470 0.555570 0.000000
v 0.923880 0.382683 0.000000
v 0.980785 0.195090 0.000000
v 1.000000 0.000000 0.000000
v 0.980785 -0.195090 0.000000
v 0.923880 -0.382683 0.000000
v 0.831470 -0.555570 0.000000
v 0.707107 -0.707107 0.000000
v 0.555570 -0.831470 0.000000
v 0.382684 -0.923880 0.000000
v 0.195090 -0.980785 0.000000
v -0.000000 1.000000 0.000001
v -0.195090 0.980785 0.000000
v -0.382683 0.923880 0.000000
v -0.555570 0.831470 0.000000
v -0.707107 0.707107 0.000000
v -0.831469 0.555570 0.000000
v -0.923879 0.382683 0.000000
v -0.980785 0.195090 0.000000
v -1.000000 0.000000 0.000000
v -0.980785 -0.195090 0.000000
v -0.923879 -0.382683 0.000000
v -0.831469 -0.555570 0.000000
v -0.707107 -0.707107 0.000000
v -0.555570 -0.831470 0.000000
v -0.382683 -0.923880 0.000000
v -0.195090 -0.980785 0.000000
v -0.191342 0.980785 -0.038060
v -0.375330 0.923880 -0.074658
v -0.544895 0.831470 -0.108386
v -0.693520 0.707107 -0.137949
v -0.815493 0.555570 -0.162211
v -0.906127 0.382683 -0.180240
v -0.961939 0.195090 -0.191342
v -0.980785 0.000000 -0.195090
v -0.961939 -0.195090 -0.191342
v -0.906127 -0.382683 -0.180240
v -0.815493 -0.555570 -0.162211
v -0.693520 -0.707107 -0.137949
v -0.544895 -0.831470 -0.108386
v -0.375330 -0.923880 -0.074658
v -0.191342 -0.980785 -0.038060
v -0.180240 0.980785 -0.074658
v -0.353553 0.923880 -0.146446
v -0.513280 0.831470 -0.212607
v -0.653281 0.707107 -0.270598
v -0.768177 0.555570 -0.318189
v -0.853553 0.382683 -0.353553
v -0.906127 0.195090 -0.375330
v -0.923879 0.000000 -0.382683
v -0.906127 -0.195090 -0.375330
v -0.853553 -0.382683 -0.353553
v -0.768177 -0.555570 -0.318189
v -0.653281 -0.707107 -0.270598
v -0.513280 -0.831470 -0.212607
v -0.353553 -0.923880 -0.146446
v -0.180240 -0.980785 -0.074657
v -0.162212 0.980785 -0.108386
v -0.318190 0.923880 -0.212607
v -0.461940 0.831470 -0.308658
v -0.587938 0.707107 -0.392847
v -0.691341 0.555570 -0.461939
v -0.768178 0.382683 -0.513280
v -0.815493 0.195090 -0.544895
v -0.831469 0.000000 -0.555570
v -0.815493 -0.195090 -0.544895
v -0.768178 -0.382683 -0.513280
v -0.691341 -0.555570 -0.461939
v -0.587938 -0.707107 -0.392847
v -0.461940 -0.831470 -0.308658
v -0.318189 -0.923880 -0.212607
v -0.162212 -0.980785 -0.108386
v -0.137950 0.980785 -0.137949
v -0.270598 0.923880 -0.270598
v -0.392847 0.831470 -0.392847
v -0.500000 0.707107 -0.500000
v -0.587937 0.555570 -0.587937
v -0.653281 0.382683 -0.653281
v -0.693519 0.195090 -0.693519
v -0.707106 0.000000 -0.707106
v -0.693519 -0.195090 -0.693519
v -0.653281 -0.382683 -0.653281
v -0.587937 -0.555570 -0.587937
v -0.500000 -0.707107 -0.500000
v -0.392847 -0.831470 -0.392847
v -0.270598 -0.923880 -0.270598
v -0.137950 -0.980785 -0.137949
v -0.108386 0.980785 -0.162211
v -0.212607 0.923880 -0.318189
v -0.308658 0.831470 -0.461939
v -0.392847 0.707107 -0.587937
v -0.461939 0.555570 -0.691341
v -0.513280 0.382683 -0.768177
v -0.544895 0.195090 -0.815492
v -0.555570 0.000000 -0.831469
v -0.544895 -0.195090 -0.815492
v -0.513280 -0.382683 -0.768177
v -0.461939 -0.555570 -0.691341
v -0.392847 -0.707107 -0.587937
v -0.308658 -0.831470 -0.461939
v -0.212607 -0.923880 -0.318189
v -0.108386 -0.980785 -0.162211
v -0.074658 0.980785 -0.180240
v -0.146447 0.923880 -0.353553
v -0.212607 0.831470 -0.513280
v -0.270598 0.707107 -0.653281
v -0.318189 0.555570 -0.768177
v -0.353553 0.382683 -0.853553
v -0.375330 0.195090 -0.906127
v -0.382683 0.000000 -0.923879
v -0.375330 -0.195090 -0.906127
v -0.353553 -0.382683 -0.853553
v -0.318189 -0.555570 -0.768177
v -0.270598 -0.707107 -0.653281
v -0.212607 -0.831470 -0.513279
v -0.146446 -0.923880 -0.353553
v -0.074658 -0.980785 -0.180240
v -0.038060 0.980785 -0.191342
v -0.074658 0.923880 -0.375330
v -0.108386 0.831470 -0.544895
v -0.137950 0.707107 -0.693520
v -0.162211 0.555570 -0.815492
v -0.180240 0.382683 -0.906127
v -0.191341 0.195090 -0.961939
v -0.195090 0.000000 -0.980785
v -0.191341 -0.195090 -0.961939
v -0.180240 -0.382683 -0.906127
v -0.162211 -0.555570 -0.815492
v -0.137950 -0.707107 -0.693520
v -0.108386 -0.831470 -0.544895
v -0.074658 -0.923880 -0.375330
v -0.038060 -0.980785 -0.191341
v 0.000000 0.980785 -0.195090
v 0.000000 0.923880 -0.382683
v 0.000000 0.831470 -0.555570
v 0.000000 0.707107 -0.707106
v 0.000000 0.555570 -0.831469
v 0.000000 0.382683 -0.923879
v 0.000000 0.195090 -0.980784
v 0.000000 0.000000 -0.999999
v 0.000000 -0.195090 -0.980784
v 0.000000 -0.382683 -0.923879
v 0.000000 -0.555570 -0.831469
v 0.000000 -0.707107 -0.707106
v 0.000000 -0.831470 -0.555570
v 0.000000 -0.923880 -0.382683
v 0.000000 -0.980785 -0.195090
vn 0.0464 0.8810 -0.4709
vn 0.0865 -0.4696 -0.8786
vn 0.0624 0.7715 -0.6332
vn 0.0759 -0.6326 -0.7708
vn 0.0759 0.6326 -0.7708
vn 0.0624 -0.7715 -0.6332
vn 0.0865 0.4696 -0.8786
vn 0.0464 -0.8810 -0.4709
vn 0.0938 0.2890 -0.9527
vn 0.0286 -0.9565 -0.2902
vn 0.0975 0.0976 -0.9904
vn 0.0097 0.9951 -0.0980
vn 0.0097 -0.9951 -0.0980
vn 0.0975 -0.0976 -0.9904
vn 0.0286 0.9565 -0.2902
vn 0.0938 -0.2890 -0.9527
vn 0.0846 0.9565 -0.2790
vn 0.2779 -0.2890 -0.9161
vn 0.1374 0.8810 -0.4528
vn 0.2563 -0.4696 -0.8448
vn 0.1847 0.7715 -0.6088
vn 0.2248 -0.6326 -0.7412
vn 0.2248 0.6326 -0.7412
vn 0.1847 -0.7715 -0.6088
vn 0.2563 0.4696 -0.8448
vn 0.1374 -0.8810 -0.4528
vn 0.2779 0.2890 -0.9161
vn 0.0846 -0.9565 -0.2790
vn 0.2889 0.0975 -0.9524
vn 0.0286 0.9951 -0.0942
vn 0.0286 -0.9951 -0.0942
vn 0.2889 -0.0975 -0.9524
vn 0.4162 0.4696 -0.7786
vn 0.2230 -0.8810 -0.4173
vn 0.4513 0.2890 -0.8443
vn 0.1374 -0.9565 -0.2571
vn 0.4691 0.0975 -0.8777
vn 0.0464 0.9951 -0.0869
vn 0.0464 -0.9951 -0.0869
vn 0.4691 -0.0975 -0.8777
vn 0.1374 0.9565 -0.2571
vn 0.4513 -0.2890 -0.8443
vn 0.2230 0.8810 -0.4173
vn 0.4162 -0.4696 -0.7786
vn 0.2999 0.7715 -0.5611
vn 0.3651 -0.6326 -0.6831
vn 0.3651 0.6326 -0.6831
vn 0.2999 -0.7715 -0.5611
vn 0.6073 -0.2890 -0.7400
vn 0.3002 0.8810 -0.3658
vn 0.5601 -0.4696 -0.6825
vn 0.4036 0.7715 -0.4918
vn 0.4913 -0.6326 -0.5987
vn 0.4913 0.6326 -0.5987
vn 0.4036 -0.7715 -0.4918
vn 0.5601 0.4696 -0.6825
vn 0.3002 -0.8810 -0.3658
vn 0.6073 0.2890 -0.7400
vn 0.1850 -0.9565 -0.2254
vn 0.6314 0.0976 -0.7693
vn 0.0625 0.9951 -0.0761
vn 0.0625 -0.9951 -0.0761
vn 0.6314 -0.0976 -0.7693
vn 0.1850 0.9565 -0.2254
vn 0.3658 -0.8810 -0.3002
vn 0.7400 0.2890 -0.6073
vn 0.2254 -0.9565 -0.1850
vn 0.7693 0.0975 -0.6314
vn 0.0761 0.9951 -0.0625
vn 0.0761 -0.9951 -0.0625
vn 0.7693 -0.0975 -0.6314
vn 0.2254 0.9565 -0.1850
vn 0.7400 -0.2890 -0.6073
vn 0.3658 0.8810 -0.3002
vn 0.6825 -0.4696 -0.5601
vn 0.4918 0.7715 -0.4036
vn 0.5987 -0.6326 -0.4913
vn 0.5987 0.6326 -0.4913
vn 0.4918 -0.7715 -0.4036
vn 0.6825 0.4696 -0.5601
vn 0.4173 0.8810 -0.2231
vn 0.7786 -0.4696 -0.4162
vn 0.5611 0.7715 -0.2999
vn 0.6831 -0.6326 -0.3651
vn 0.6831 0.6326 -0.3651
vn 0.5611 -0.7715 -0.2999
vn 0.7786 0.4696 -0.4162
vn 0.4173 -0.8810 -0.2231
vn 0.8443 0.2890 -0.4513
vn 0.2571 -0.9565 -0.1374
vn 0.8777 0.0976 -0.4691
vn 0.0869 0.9951 -0.0464
vn 0.0869 -0.9951 -0.0464
vn 0.8777 -0.0976 -0.4691
vn 0.2571 0.9565 -0.1374
vn 0.8443 -0.2890 -0.4513
vn 0.9161 0.2890 -0.2779
vn 0.2790 -0.9565 -0.0846
vn 0.9524 0.0976 -0.2889
vn 0.0942 0.9951 -0.0286
vn 0.0942 -0.9951 -0.0286
vn 0.9524 -0.0976 -0.2889
vn 0.2790 0.9565 -0.0846
vn 0.9161 -0.2890 -0.2779
vn 0.4528 0.8810 -0.1374
vn 0.8448 -0.4696 -0.2563
vn 0.6088 0.7715 -0.1847
vn 0.7412 -0.6326 -0.2248
vn 0.7412 0.6326 -0.2248
vn 0.6088 -0.7715 -0.1847
vn 0.8448 0.4696 -0.2563
vn 0.4528 -0.8810 -0.1374
vn 0.8786 -0.4696 -0.0865
vn 0.6332 0.7715 -0.0624
vn 0.7708 -0.6326 -0.0759
vn 0.7708 0.6326 -0.0759
vn 0.6332 -0.7715 -0.0624
vn 0.8786 0.4696 -0.0865
vn 0.4709 -0.8810 -0.0464
vn 0.9527 0.2890 -0.0938
vn 0.2902 -0.9565 -0.0286
vn 0.9904 0.0976 -0.0975
vn 0.0980 0.9951 -0.0097
vn 0.0980 -0.9951 -0.0097
vn 0.9904 -0.0976 -0.0975
vn 0.2902 0.9565 -0.0286
vn 0.9527 -0.2890 -0.0938
vn 0.4709 0.8810 -0.0464
vn -0.7708 0.6326 -0.0759
vn -0.6332 -0.7715 -0.0624
vn -0.8786 0.4696 -0.0865
vn -0.4709 -0.8810 -0.0464
vn -0.9527 0.2890 -0.0938
vn -0.2902 -0.9565 -0.0286
vn -0.9904 0.0976 -0.0976
vn -0.0980 0.9951 -0.0097
vn -0.0980 -0.9951 -0.0097
vn -0.9904 -0.0976 -0.0976
vn -0.2902 0.9565 -0.0286
vn -0.9527 -0.2890 -0.0938
vn -0.4709 0.8810 -0.0464
vn -0.8786 -0.4696 -0.0865
vn -0.6332 0.7715 -0.0624
vn -0.7708 -0.6326 -0.0759
vn -0.9524 -0.0976 -0.2889
vn -0.2790 0.9565 -0.0846
vn -0.9161 -0.2890 -0.2779
vn -0.4528 0.8810 -0.1374
vn -0.8448 -0.4696 -0.2563
vn -0.6088 0.7715 -0.1847
vn -0.7412 -0.6326 -0.2248
vn -0.7412 0.6326 -0.2248
vn -0.6088 -0.7715 -0.1847
vn -0.8448 0.4696 -0.2563
vn -0.4528 -0.8810 -0.1374
vn -0.9161 0.2890 -0.2779
vn -0.2790 -0.9565 -0.0846
vn -0.9524 0.0976 -0.2889
vn -0.0942 0.9951 -0.0286
vn -0.0942 -0.9951 -0.0286
vn -0.5611 -0.7715 -0.2999
vn -0.7786 0.4696 -0.4162
vn -0.4173 -0.8810 -0.2231
vn -0.8443 0.2890 -0.4513
vn -0.2571 -0.9565 -0.1374
vn -0.8777 0.0976 -0.4691
vn -0.0869 0.9951 -0.0464
vn -0.0869 -0.9951 -0.0464
vn -0.8777 -0.0976 -0.4691
vn -0.2571 0.9565 -0.1374
vn -0.8443 -0.2890 -0.4513
vn -0.4173 0.8810 -0.2231
vn -0.7786 -0.4696 -0.4162
vn -0.5611 0.7715 -0.2999
vn -0.6831 -0.6326 -0.3651
vn -0.6831 0.6326 -0.3651
vn -0.7400 -0.2890 -0.6073
vn -0.3658 0.8810 -0.3002
vn -0.6825 -0.4696 -0.5601
vn -0.4918 0.7715 -0.4036
vn -0.5987 -0.6326 -0.4913
vn -0.5987 0.6326 -0.4913
vn -0.4918 -0.7715 -0.4036
vn -0.6825 0.4696 -0.5601
vn -0.3658 -0.8810 -0.3002
vn -0.7400 0.2890 -0.6073
vn -0.2254 -0.9565 -0.1850
vn -0.7693 0.0976 -0.6314
vn -0.0761 0.9951 -0.0625
vn -0.0761 -0.9951 -0.0625
vn -0.7693 -0.0976 -0.6314
vn -0.2254 0.9565 -0.1850
vn -0.3002 -0.8810 -0.3658
vn -0.6073 0.2890 -0.7400
vn -0.1850 -0.9565 -0.2254
vn -0.6314 0.0976 -0.7693
vn -0.0625 0.9951 -0.0761
vn -0.0625 -0.9951 -0.0761
vn -0.6314 -0.0976 -0.7693
vn -0.1850 0.9565 -0.2254
vn -0.6073 -0.2890 -0.7400
vn -0.3002 0.8810 -0.3658
vn -0.5601 -0.4696 -0.6825
vn -0.4036 0.7715 -0.4918
vn -0.4913 -0.6326 -0.5987
vn -0.4913 0.6326 -0.5987
vn -0.4036 -0.7715 -0.4918
vn -0.5601 0.4696 -0.6825
vn -0.2230 0.8810 -0.4173
vn -0.4162 -0.4696 -0.7786
vn -0.2999 0.7715 -0.5611
vn -0.3651 -0.6326 -0.6831
vn -0.3651 0.6326 -0.6831
vn -0.2999 -0.7715 -0.5611
vn -0.4162 0.4696 -0.7786
vn -0.2230 -0.8810 -0.4173
vn -0.4513 0.2890 -0.8443
vn -0.1374 -0.9565 -0.2571
vn -0.4691 0.0976 -0.8777
vn -0.0464 0.9951 -0.0869
vn -0.0464 -0.9951 -0.0869
vn -0.4691 -0.0976 -0.8777
vn -0.1374 0.9565 -0.2571
vn -0.4513 -0.2890 -0.8443
vn -0.2779 0.2890 -0.9161
vn -0.0846 -0.9565 -0.2790
vn -0.2889 0.0976 -0.9524
vn -0.0286 0.9951 -0.0942
vn -0.0286 -0.9951 -0.0942
vn -0.2889 -0.0976 -0.9524
vn -0.0846 0.9565 -0.2790
vn -0.2779 -0.2890 -0.9161
vn -0.1374 0.8810 -0.4528
vn -0.2563 -0.4696 -0.8448
vn -0.1847 0.7715 -0.6088
vn -0.2248 -0.6326 -0.7412
vn -0.2248 0.6326 -0.7412
vn -0.1847 -0.7715 -0.6088
vn -0.2563 0.4696 -0.8448
vn -0.1374 -0.8810 -0.4528
vn -0.0865 -0.4696 -0.8786
vn -0.0624 0.7715 -0.6332
vn -0.0759 -0.6326 -0.7708
vn -0.0759 0.6326 -0.7708
vn -0.0624 -0.7715 -0.6332
vn -0.0865 0.4696 -0.8786
vn -0.0464 -0.8810 -0.4709
vn -0.0938 0.2890 -0.9527
vn -0.0286 -0.9565 -0.2902
vn -0.0975 0.0976 -0.9904
vn -0.0097 0.9951 -0.0980
vn -0.0097 -0.9951 -0.0980
vn -0.0975 -0.0976 -0.9904
vn -0.0286 0.9565 -0.2902
vn -0.0938 -0.2890 -0.9527
vn -0.0464 0.8810 -0.4709
usemtl None
s off
f 245//1 244//1 3//1 4//1
f 253//2 252//2 11//2 12//2
f 246//3 245//3 4//3 5//3
f 254//4 253//4 12//4 13//4
f 247//5 246//5 5//5 6//5
f 255//6 254//6 13//6 14//6
f 248//7 247//7 6//7 7//7
f 256//8 255//8 14//8 15//8
f 249//9 248//9 7//9 8//9
f 257//10 256//10 15//10 16//10
f 250//11 249//11 8//11 9//11
f 243//12 122//12 2//12
f 1//13 257//13 16//13
f 251//14 250//14 9//14 10//14
f 244//15 243//15 2//15 3//15
f 252//16 251//16 10//16 11//16
f 3//17 2//17 17//17 18//17
f 11//18 10//18 25//18 26//18
f 4//19 3//19 18//19 19//19
f 12//20 11//20 26//20 27//20
f 5//21 4//21 19//21 20//21
f 13//22 12//22 27//22 28//22
f 6//23 5//23 20//23 21//23
f 14//24 13//24 28//24 29//24
f 7//25 6//25 21//25 22//25
f 15//26 14//26 29//26 30//26
f 8//27 7//27 22//27 23//27
f 16//28 15//28 30//28 31//28
f 9//29 8//29 23//29 24//29
f 2//30 122//30 17//30
f 1//31 16//31 31//31
f 10//32 9//32 24//32 25//32
f 22//33 21//33 36//33 37//33
f 30//34 29//34 44//34 45//34
f 23//35 22//35 37//35 38//35
f 31//36 30//36 45//36 46//36
f 24//37 23//37 38//37 39//37
f 17//38 122//38 32//38
f 1//39 31//39 46//39
f 25//40 24//40 39//40 40//40
f 18//41 17//41 32//41 33//41
f 26//42 25//42 40//42 41//42
f 19//43 18//43 33//43 34//43
f 27//44 26//44 41//44 42//44
f 20//45 19//45 34//45 35//45
f 28//46 27//46 42//46 43//46
f 21//47 20//47 35//47 36//47
f 29//48 28//48 43//48 44//48
f 41//49 40//49 55//49 56//49
f 34//50 33//50 48//50 49//50
f 42//51 41//51 56//51 57//51
f 35//52 34//52 49//52 50//52
f 43//53 42//53 57//53 58//53
f 36//54 35//54 50//54 51//54
f 44//55 43//55 58//55 59//55
f 37//56 36//56 51//56 52//56
f 45//57 44//57 59//57 60//57
f 38//58 37//58 52//58 53//58
f 46//59 45//59 60//59 61//59
f 39//60 38//60 53//60 54//60
f 32//61 122//61 47//61
f 1//62 46//62 61//62
f 40//63 39//63 54//63 55//63
f 33//64 32//64 47//64 48//64
f 60//65 59//65 74//65 75//65
f 53//66 52//66 67//66 68//66
f 61//67 60//67 75//67 76//67
f 54//68 53//68 68//68 69//68
f 47//69 122//69 62//69
f 1//70 61//70 76//70
f 55//71 54//71 69//71 70//71
f 48//72 47//72 62//72 63//72
f 56//73 55//73 70//73 71//73
f 49//74 48//74 63//74 64//74
f 57//75 56//75 71//75 72//75
f 50//76 49//76 64//76 65//76
f 58//77 57//77 72//77 73//77
f 51//78 50//78 65//78 66//78
f 59//79 58//79 73//79 74//79
f 52//80 51//80 66//80 67//80
f 64//81 63//81 78//81 79//81
f 72//82 71//82 86//82 87//82
f 65//83 64//83 79//83 80//83
f 73//84 72//84 87//84 88//84
f 66//85 65//85 80//85 81//85
f 74//86 73//86 88//86 89//86
f 67//87 66//87 81//87 82//87
f 75//88 74//88 89//88 90//88
f 68//89 67//89 82//89 83//89
f 76//90 75//90 90//90 91//90
f 69//91 68//91 83//91 84//91
f 62//92 122//92 77//92
f 1//93 76//93 91//93
f 70//94 69//94 84//94 85//94
f 63//95 62//95 77//95 78//95
f 71//96 70//96 85//96 86//96
f 83//97 82//97 97//97 98//97
f 91//98 90//98 105//98 106//98
f 84//99 83//99 98//99 99//99
f 77//100 122//100 92//100
f 1//101 91//101 106//101
f 85//102 84//102 99//102 100//102
f 78//103 77//103 92//103 93//103
f 86//104 85//104 100//104 101//104
f 79//105 78//105 93//105 94//105
f 87//106 86//106 101//106 102//106
f 80//107 79//107 94//107 95//107
f 88//108 87//108 102//108 103//108
f 81//109 80//109 95//109 96//109
f 89//110 88//110 103//110 104//110
f 82//111 81//111 96//111 97//111
f 90//112 89//112 104//112 105//112
f 102//113 101//113 116//113 117//113
f 95//114 94//114 109//114 110//114
f 103//115 102//115 117//115 118//115
f 96//116 95//116 110//116 111//116
f 104//117 103//117 118//117 119//117
f 97//118 96//118 111//118 112//118
f 105//119 104//119 119//119 120//119
f 98//120 97//120 112//120 113//120
f 106//121 105//121 120//121 121//121
f 99//122 98//122 113//122 114//122
f 92//123 122//123 107//123
f 1//124 106//124 121//124
f 100//125 99//125 114//125 115//125
f 93//126 92//126 107//126 108//126
f 101//127 100//127 115//127 116//127
f 94//128 93//128 108//128 109//128
f 127//129 126//129 141//129 142//129
f 135//130 134//130 149//130 150//130
f 128//131 127//131 142//131 143//131
f 136//132 135//132 150//132 151//132
f 129//133 128//133 143//133 144//133
f 137//134 136//134 151//134 152//134
f 130//135 129//135 144//135 145//135
f 123//136 122//136 138//136
f 1//137 137//137 152//137
f 131//138 130//138 145//138 146//138
f 124//139 123//139 138//139 139//139
f 132//140 131//140 146//140 147//140
f 125//141 124//141 139//141 140//141
f 133//142 132//142 147//142 148//142
f 126//143 125//143 140//143 141//143
f 134//144 133//144 148//144 149//144
f 146//145 145//145 160//145 161//145
f 139//146 138//146 153//146 154//146
f 147//147 146//147 161//147 162//147
f 140//148 139//148 154//148 155//148
f 148//149 147//149 162//149 163//149
f 141//150 140//150 155//150 156//150
f 149//151 148//151 163//151 164//151
f 142//152 141//152 156//152 157//152
f 150//153 149//153 164//153 165//153
f 143//154 142//154 157//154 158//154
f 151//155 150//155 165//155 166//155
f 144//156 143//156 158//156 159//156
f 152//157 151//157 166//157 167//157
f 145//158 144//158 159//158 160//158
f 138//159 122//159 153//159
f 1//160 152//160 167//160
f 165//161 164//161 179//161 180//161
f 158//162 157//162 172//162 173//162
f 166//163 165//163 180//163 181//163
f 159//164 158//164 173//164 174//164
f 167//165 166//165 181//165 182//165
f 160//166 159//166 174//166 175//166
f 153//167 122//167 168//167
f 1//168 167//168 182//168
f 161//169 160//169 175//169 176//169
f 154//170 153//170 168//170 169//170
f 162//171 161//171 176//171 177//171
f 155//172 154//172 169//172 170//172
f 163//173 162//173 177//173 178//173
f 156//174 155//174 170//174 171//174
f 164//175 163//175 178//175 179//175
f 157//176 156//176 171//176 172//176
f 177//177 176//177 191//177 192//177
f 170//178 169//178 184//178 185//178
f 178//179 177//179 192//179 193//179
f 171//180 170//180 185//180 186//180
f 179//181 178//181 193//181 194//181
f 172//182 171//182 186//182 187//182
f 180//183 179//183 194//183 195//183
f 173//184 172//184 187//184 188//184
f 181//185 180//185 195//185 196//185
f 174//186 173//186 188//186 189//186
f 182//187 181//187 196//187 197//187
f 175//188 174//188 189//188 190//188
f 168//189 122//189 183//189
f 1//190 182//190 197//190
f 176//191 175//191 190//191 191//191
f 169//192 168//192 183//192 184//192
f 196//193 195//193 210//193 211//193
f 189//194 188//194 203//194 204//194
f 197//195 196//195 211//195 212//195
f 190//196 189//196 204//196 205//196
f 183//197 122//197 198//197
f 1//198 197//198 212//198
f 191//199 190//199 205//199 206//199
f 184//200 183//200 198//200 199//200
f 192//201 191//201 206//201 207//201
f 185//202 184//202 199//202 200//202
f 193//203 192//203 207//203 208//203
f 186//204 185//204 200//204 201//204
f 194//205 193//205 208//205 209//205
f 187//206 186//206 201//206 202//206
f 195//207 194//207 209//207 210//207
f 188//208 187//208 202//208 203//208
f 200//209 199//209 214//209 215//209
f 208//210 207//210 222//210 223//210
f 201//211 200//211 215//211 216//211
f 209//212 208//212 223//212 224//212
f 202//213 201//213 216//213 217//213
f 210//214 209//214 224//214 225//214
f 203//215 202//215 217//215 218//215
f 211//216 210//216 225//216 226//216
f 204//217 203//217 218//217 219//217
f 212//218 211//218 226//218 227//218
f 205//219 204//219 219//219 220//219
f 198//220 122//220 213//220
f 1//221 212//221 227//221
f 206//222 205//222 220//222 221//222
f 199//223 198//223 213//223 214//223
f 207//224 206//224 221//224 222//224
f 219//225 218//225 233//225 234//225
f 227//226 226//226 241//226 242//226
f 220//227 219//227 234//227 235//227
f 213//228 122//228 228//228
f 1//229 227//229 242//229
f 221//230 220//230 235//230 236//230
f 214//231 213//231 228//231 229//231
f 222//232 221//232 236//232 237//232
f 215//233 214//233 229//233 230//233
f 223//234 222//234 237//234 238//234
f 216//235 215//235 230//235 231//235
f 224//236 223//236 238//236 239//236
f 217//237 216//237 231//237 232//237
f 225//238 224//238 239//238 240//238
f 218//239 217//239 232//239 233//239
f 226//240 225//240 240//240 241//240
f 238//241 237//241 252//241 253//241
f 231//242 230//242 245//242 246//242
f 239//243 238//243 253//243 254//243
f 232//244 231//244 246//244 247//244
f 240//245 239//245 254//245 255//245
f 233//246 232//246 247//246 248//246
f 241//247 240//247 255//247 256//247
f 234//248 233//248 248//248 249//248
f 242//249 241//249 256//249 257//249
f 235//250 234//250 249//250 250//250
f 228//251 122//251 243//251
f 1//252 242//252 257//252
f 236//253 235//253 250//253 251//253
f 229//254 228//254 243//254 244//254
f 237//255 236//255 251//255 252//255
f 230//256 229//256 244//256 245//256
